<svg width="256" height="297" viewBox="0 0 256 297" fill="none" xmlns="http://www.w3.org/2000/svg">
<g clip-path="url(#clip0_140_35)">
<path d="M40.1691 129.72C31.5062 133.795 8.57793 152.139 4.16187 157.574C-0.424293 163.009 -1.78263 154.517 2.9728 140.42C6.70844 129.04 16.221 113.584 32.1858 100.337C41.5266 92.6936 62.0784 81.6543 74.6462 75.1994C77.1944 73.8403 110.144 59.9134 139.527 52.9499C142.075 52.2703 136.47 57.1958 135.62 59.9134C131.204 72.8213 43.055 128.19 43.055 128.19L40.1691 129.72Z" fill="black"/>
<path d="M164.324 285.466C165.853 294.637 164.494 295.317 154.983 296.506C145.472 297.695 138.508 294.128 135.961 291.751C133.413 289.372 132.904 284.108 135.451 279.352C136.981 276.295 138.509 275.276 139.359 271.539C140.208 267.973 140.887 267.123 141.566 265.765C142.245 264.575 142.416 263.386 142.585 255.064C142.755 246.742 142.585 231.116 143.435 224.493C144.284 217.699 173.668 227.549 173.668 227.549C173.668 227.549 166.703 244.873 164.835 249.119C162.967 253.366 163.137 261.518 163.137 263.216C163.137 264.915 162.458 268.311 161.948 268.481C161.438 268.651 163.646 273.067 162.627 275.615C161.947 277.993 164.155 284.108 164.324 285.466Z" fill="black"/>
<path d="M175.534 25.775C174.515 19.321 175.534 6.58148 176.893 4.54439C181.14 -1.23084 203.558 -1.90959 208.315 4.88377C210.353 7.94065 210.182 15.0742 209.843 19.6604C209.504 24.2457 208.315 34.0968 208.145 37.3246C207.975 39.7027 183.348 43.4384 177.913 36.9844C176.383 35.2867 175.534 25.775 175.534 25.775Z" fill="black"/>
<path d="M225.469 268.991C235.829 276.465 243.812 277.823 249.076 280.54C254.341 283.259 252.983 288.524 244.151 290.052C237.017 291.41 225.808 288.693 218.335 288.693C210.862 288.693 194.217 289.543 189.801 286.486C184.706 282.919 186.913 276.294 186.913 276.294C188.272 272.559 191.669 264.235 190.65 257.442C189.631 250.649 188.271 246.912 185.724 240.627C183.177 234.344 181.309 218.888 183.687 218.039C186.065 217.189 185.385 218.039 188.442 218.717C191.499 219.396 194.896 220.416 201.52 220.416C208.145 220.416 215.447 219.396 217.996 218.887C220.543 218.378 222.581 217.868 221.731 223.133C220.882 228.398 218.335 238.249 218.165 245.892C217.996 253.535 217.996 262.368 218.505 263.896C219.014 265.424 222.751 267.123 225.469 268.991Z" fill="black"/>
<path d="M246.359 135.834C246.359 135.834 243.132 146.874 236.678 150.441C236.678 150.441 231.922 152.139 222.411 146.875C219.694 145.346 217.656 140.081 217.825 138.382C217.995 134.305 220.543 132.437 220.543 132.437C220.543 132.437 223.261 127.851 226.487 128.021C229.715 128.191 235.15 128.7 236.849 127.172C238.376 125.473 246.699 130.228 246.359 135.834Z" fill="black"/>
<path d="M177.063 29.0019C177.063 29.0019 176.384 37.6647 175.195 43.0989C175.025 44.1187 169.93 44.6273 166.193 46.1566C173.326 66.5375 216.297 66.3674 221.902 56.3471C219.185 54.4792 213.75 51.5916 211.202 50.5727C208.654 49.5529 208.824 49.723 208.654 44.9675C208.485 40.2113 208.145 31.38 207.804 29.0019C207.465 26.6237 181.139 26.6237 177.063 29.0019Z" fill="black"/>
<path d="M178.761 29.0017C178.761 29.0017 178.761 33.9273 178.252 38.6827C178.082 40.8907 177.912 42.2491 177.573 43.9476C177.403 44.9674 183.347 49.0424 185.046 58.0446C193.198 76.2175 212.052 67.2161 219.864 58.5541C217.146 56.6855 212.73 54.1381 207.636 52.1001C205.087 51.0803 206.276 48.8732 206.107 44.1177C205.937 39.3623 205.257 32.398 204.918 29.8506C204.577 27.3032 182.838 26.6236 178.761 29.0017Z" fill="#EFEFEF"/>
<path d="M177.063 29.0019C177.063 29.0019 176.892 32.0596 176.384 35.6259C178.591 37.8331 181.479 40.8909 183.687 42.7595C185.216 44.1187 188.952 43.9486 192.349 43.9486C195.406 43.9486 198.124 44.288 199.313 43.6092C202.031 42.25 205.937 38.8538 208.145 36.3055C207.976 33.2487 207.806 30.361 207.636 29.0019C207.465 26.6237 181.138 26.6237 177.063 29.0019Z" fill="black"/>
<path d="M192.519 41.9098C190.48 41.9098 188.102 41.7405 186.234 41.4003C185.384 41.231 184.535 40.7215 183.856 40.3813C182.667 39.5316 181.478 38.5135 180.12 37.4937C177.402 35.4558 177.233 34.2667 177.233 33.7581C178.422 23.0573 176.892 14.0559 176.892 14.0559C176.892 14.0559 175.703 9.46977 182.157 8.2807C188.611 7.09163 192.518 6.92236 192.518 6.92236C192.518 6.92236 196.595 6.92236 202.878 8.2807C209.332 9.46977 208.143 14.0559 208.143 14.0559C208.143 14.0559 206.615 23.0573 207.804 33.7581C207.804 34.2667 207.635 35.4558 204.916 37.4937C202.538 39.1923 200.67 41.0601 198.803 41.4003C196.934 41.7405 194.556 41.9098 192.519 41.9098Z" fill="black"/>
<path d="M192.519 2.50635C181.309 2.50635 179.1 5.56323 175.873 8.96033C175.195 9.80919 175.703 14.9048 176.893 25.7749H178.422C178.422 25.7749 177.402 22.7172 177.572 19.1508C177.742 15.5844 178.422 15.7545 177.911 14.9048C177.233 13.885 175.873 12.1865 178.931 10.4888C181.988 8.79022 186.743 11.8471 192.519 12.0172C198.293 11.8471 203.219 8.79022 206.275 10.4888C209.332 12.1865 207.974 13.885 207.295 14.9048C206.616 15.9238 207.465 15.5836 207.635 19.1508C207.804 22.7172 206.785 25.7749 206.785 25.7749H208.313C209.332 14.9048 210.012 10.1494 209.502 9.29971C206.615 5.56323 203.728 2.67562 192.519 2.50635Z" fill="black"/>
<path d="M246.359 136.343C246.359 136.343 243.132 146.703 236.848 150.27C235.489 149.591 235.659 148.572 234.47 147.043C234.13 146.534 232.941 146.193 232.432 145.684C231.923 145.175 232.093 144.325 231.243 143.647C230.563 142.967 230.054 143.476 229.374 142.967C228.696 142.288 228.525 141.439 228.016 140.93C227.676 140.59 226.317 140.42 225.978 140.08C225.128 139.231 217.656 137.702 217.996 136.004C218.674 133.455 220.034 131.587 220.034 131.587C220.034 131.587 223.261 126.832 226.487 127.001C229.714 127.171 232.771 127.851 234.47 126.323C236.339 124.623 246.869 130.908 246.359 136.343Z" fill="black"/>
<path d="M224.279 61.2724C224.279 61.2724 234.979 58.7242 242.283 65.6885C249.587 72.822 249.076 81.6533 246.869 87.0883C248.737 89.2964 252.134 95.4101 249.587 102.714C260.796 112.225 255.87 126.832 245.85 136.513C245.85 136.513 243.472 127.681 233.961 127.171C234.3 123.775 225.129 121.057 229.375 112.225C222.921 110.696 223.091 106.28 222.072 100.846C221.222 95.4101 224.279 61.2724 224.279 61.2724Z" fill="black"/>
<path d="M220.373 66.0278C220.373 66.0278 232.771 59.744 240.075 66.8775C247.378 74.0111 245.339 81.8234 243.132 87.2584C244.999 89.4656 249.415 95.7512 246.698 103.223C246.188 104.922 242.452 104.922 239.734 109.338C246.527 105.43 250.774 106.45 252.302 111.375C254.68 119.018 249.415 128.19 244.829 133.285C244.829 133.115 244.659 132.945 244.659 132.776C243.98 135.324 243.131 140.249 238.036 145.684C235.488 148.401 233.45 148.062 230.562 147.382C227.166 146.533 225.977 145.003 221.221 142.457C218.504 140.928 220.032 139.06 220.032 137.531C220.032 137.192 220.372 136.681 220.882 136.003C221.221 135.153 222.24 133.795 223.769 132.266C223.769 132.266 225.977 129.209 229.205 129.379C232.432 129.549 235.828 128.87 236.678 128.02C236.678 122.076 229.884 121.906 232.262 111.715C232.432 111.206 233.281 110.356 235.998 110.017C231.921 109.167 230.054 108.997 227.166 106.28C225.128 104.412 223.6 102.034 223.089 98.9773C222.071 93.7124 220.373 66.0278 220.373 66.0278Z" fill="#EFEFEF"/>
<path d="M184.536 55.3283C183.517 53.9691 178.252 47.1757 168.231 44.4582C165.343 43.6085 163.475 45.9867 160.589 47.6852C159.739 47.1757 156.002 45.4772 153.964 46.6654C151.927 47.8536 150.568 49.0435 148.529 49.8924C147.51 49.3829 144.793 49.3829 142.585 50.2318C140.377 50.9114 136.98 52.4398 133.753 56.8559C131.715 64.1595 169.759 58.7237 169.759 58.7237L184.536 55.3283Z" fill="black"/>
<path d="M216.806 58.0457C216.806 58.0457 216.806 56.177 216.636 54.4793C216.636 54.14 215.278 53.2903 215.278 52.9509L214.938 52.6107C214.938 52.6107 217.656 51.0822 219.694 51.9319C221.901 52.6107 223.09 55.4983 223.09 55.4983C226.997 54.14 227.336 55.6684 229.205 57.7063C233.281 56.8566 233.79 58.3851 236.338 62.1224C236.338 62.1224 233.281 61.6129 227.337 62.631C221.562 63.4799 216.806 57.8756 216.806 58.0457Z" fill="black"/>
<path d="M158.38 52.9502C158.38 52.9502 168.061 56.3465 176.214 55.837C184.366 55.1582 198.293 54.4786 205.766 58.8947C205.766 58.8947 213.409 56.1764 220.543 58.045C227.677 59.9128 240.754 72.142 236.849 85.05C236.508 85.8997 234.3 87.258 231.753 88.1077C231.753 88.1077 233.112 93.8821 230.734 98.6376C228.356 103.224 223.091 112.056 222.921 124.284C222.752 126.322 222.412 130.568 222.072 132.606C208.824 132.097 188.443 127.171 168.401 127.511C168.571 125.304 168.741 123.945 168.911 121.737H169.42C168.401 116.132 168.061 113.244 167.041 108.998C160.587 104.922 153.793 100.167 148.02 91.1646C142.415 82.1624 158.38 52.9502 158.38 52.9502Z" fill="black"/>
<path d="M223.94 144.666C223.94 144.666 234.47 182.371 222.072 198.167C222.072 198.167 223.94 205.47 219.694 213.283C219.014 216.679 218.165 219.737 217.656 223.133C215.448 237.23 211.711 243.175 210.692 265.764L200.5 265.594C200.5 265.594 199.311 249.289 195.745 240.627C193.708 235.703 185.724 229.078 186.065 222.454C186.404 217.359 187.423 213.113 196.086 206.319C196.765 196.468 186.914 187.126 188.443 150.44L223.94 144.666Z" fill="black"/>
<path d="M220.883 143.136C223.601 160.46 229.884 186.107 218.505 198.675C219.014 201.053 219.354 204.45 218.674 208.356C218.335 210.394 217.655 212.602 216.806 214.979C215.108 219.056 214.428 225 213.919 228.566C211.711 242.663 211.711 243.344 210.692 265.933L200.5 265.763C200.5 265.763 199.311 249.458 195.745 240.796C193.708 235.871 189.461 231.625 189.122 225.001C188.782 219.906 192.349 209.716 200.842 210.055C200.332 189.504 190.82 193.58 188.273 150.779L220.883 143.136Z" fill="#EFEFEF"/>
<path d="M158.381 52.9502C158.381 52.9502 162.117 54.1393 166.193 54.4786C170.27 54.818 174.686 54.4786 178.591 54.3085C186.744 53.6298 198.293 52.7801 205.937 57.1962C205.937 57.1962 210.182 55.837 214.769 56.1764C216.807 56.3465 218.845 58.045 221.223 58.7246C228.696 60.5924 235.829 72.9909 232.601 84.2011C232.262 85.0508 229.884 84.2011 227.166 85.0508C227.675 87.429 228.016 92.864 225.298 98.6384C222.411 104.414 218.674 111.887 219.353 126.154C201.52 125.304 193.537 124.116 175.873 123.266C174.345 116.981 173.325 110.697 173.155 107.47C175.534 106.281 176.891 105.263 178.761 103.225C173.666 104.074 171.627 103.734 168.569 102.035C165.512 100.337 160.077 94.9019 157.36 91.3355C157.021 90.9953 155.153 96.5996 150.907 96.7706C149.377 94.5625 155.831 88.2778 154.642 85.9005C150.397 77.2377 158.381 52.9502 158.381 52.9502Z" fill="#EFEFEF"/>
<path d="M222.24 129.039C222.24 129.039 222.58 135.154 222.58 136.682C222.58 138.381 223.939 143.476 224.108 145.854C222.24 149.081 214.088 156.385 199.311 159.102C184.705 162.159 165.343 139.231 165.343 139.231C165.852 137.023 167.551 130.568 168.74 127.172C168.91 126.832 169.249 125.982 169.249 125.643C170.779 123.435 222.24 129.039 222.24 129.039Z" fill="black"/>
<path d="M218.505 129.55C218.505 133.796 219.184 136.853 219.694 139.571C220.543 144.496 221.901 147.723 221.901 150.95C221.901 160.801 208.993 159.102 198.122 159.442C183.516 162.5 171.117 139.571 171.117 139.571C172.136 135.664 172.816 131.249 174.344 127.512C174.513 125.474 174.854 122.926 175.023 121.737C195.744 121.737 210.351 122.926 218.843 123.774C219.184 125.643 218.844 128.87 218.505 129.55Z" fill="#EFEFEF"/>
<path d="M202.199 151.459C202.199 151.459 193.198 131.418 166.192 137.363C159.739 155.536 151.076 176.427 156.681 199.016C151.076 206.659 144.622 210.906 144.622 225.002C144.622 239.099 145.302 241.477 145.302 241.477L165.173 242.497C165.173 242.497 171.627 234.175 174.174 225.173C174.854 222.625 175.534 218.039 175.024 212.775C175.703 211.756 178.591 209.378 178.931 204.792C178.931 204.792 188.612 199.697 194.217 187.299C199.483 176.087 198.123 166.406 202.199 151.459Z" fill="black"/>
<path d="M202.199 151.459C201.69 149.591 194.896 131.248 169.759 136.683C154.983 176.087 160.418 192.392 162.625 199.525C152.604 212.263 148.019 214.98 150.058 240.797H163.306C169.419 231.116 170.779 227.549 171.118 214.811C171.118 214.301 169.25 215.83 167.891 217.528C168.911 212.263 171.798 211.244 174.006 208.017C175.025 206.658 175.873 204.62 175.873 201.903C187.762 193.92 192.179 183.899 194.726 173.539C196.765 166.406 199.142 154.686 202.199 151.459Z" fill="#EFEFEF"/>
<path d="M160.248 124.115C160.248 124.115 164.834 124.284 168.911 125.643C172.818 127.002 172.818 127.85 174.346 129.55C175.874 131.249 179.611 133.796 178.932 136.343C178.592 137.702 177.743 138.042 176.554 139.231C176.045 139.74 172.307 143.816 171.458 144.326C170.949 144.665 170.269 145.175 169.76 145.515C169.251 145.854 167.723 146.874 167.212 147.213C165.514 148.063 164.325 148.572 162.457 148.402C162.457 148.402 158.211 148.232 155.493 145.345C155.493 145.345 155.153 143.986 155.833 143.307C155.833 143.307 152.266 140.25 151.247 138.212C150.227 136.175 150.227 133.287 150.907 131.759C151.247 130.229 157.87 125.983 160.248 124.115Z" fill="black"/>
<path d="M164.495 289.373L163.986 293.619C163.986 293.619 162.457 295.487 151.078 295.318C139.528 295.148 136.471 291.582 135.452 289.713L134.773 285.297C134.773 285.297 136.981 282.07 137.491 282.07C141.227 282.409 153.966 287.505 162.798 288.863C163.645 288.863 163.815 289.203 164.495 289.373Z" fill="black"/>
<path d="M189.122 280.71C189.122 282.578 188.952 282.578 188.952 284.447C190.99 285.975 196.086 286.825 205.766 286.654C219.863 286.315 232.941 290.901 248.906 288.182L249.076 285.126L247.548 284.956L190.99 280.37L189.122 280.71Z" fill="black"/>
<path d="M201.52 286.655C202.879 286.655 204.238 286.655 205.766 286.655C214.938 286.316 223.6 288.354 232.941 288.863C237.867 288.693 243.981 287.504 243.472 283.938L195.236 279.861C192.349 283.088 194.556 285.805 201.52 286.655Z" fill="black"/>
<path d="M146.151 215.151C147.68 216.17 158.04 222.284 174.855 221.435C174.515 224.662 174.685 230.946 167.212 241.986C163.475 247.421 160.247 256.932 159.569 268.992C159.739 271.709 161.267 274.086 159.229 277.654C159.908 279.861 162.626 284.277 163.985 286.994C165.343 289.713 166.023 292.77 157.02 292.94C147.849 293.109 133.072 292.09 135.111 284.957C136.131 281.221 139.018 277.314 139.358 275.785C139.697 274.257 139.697 269.671 142.584 266.613C145.132 258.122 144.283 249.969 143.774 242.326C142.924 234.343 142.754 221.605 146.151 215.151Z" fill="black"/>
<path d="M161.947 76.7278C174.006 60.592 163.815 47.6849 144.453 51.5906C136.64 53.1191 128.828 58.5549 128.318 68.4052C125.77 68.7446 119.996 69.0839 117.108 79.6146C114.901 87.7671 113.712 89.2956 109.805 93.3714C107.257 96.259 109.975 102.204 111.843 106.45C118.127 121.057 137.489 122.415 150.567 133.455C154.983 132.266 159.569 127.342 160.928 124.115C149.888 111.036 152.265 105.941 147.849 99.1475C152.605 97.4481 163.475 90.8249 161.947 76.7278Z" fill="black"/>
<path d="M159.569 75.709C160.247 74.6892 161.437 72.482 161.947 71.6323C162.117 71.4622 163.985 74.6892 164.155 74.5199C168.74 67.0461 169.929 56.1761 164.664 55.1571C163.474 54.987 161.267 54.4784 159.399 53.798C156.002 52.6089 152.945 52.6089 147.51 53.6287C140.037 54.987 132.564 60.422 132.564 68.2352C132.564 68.7447 137.828 70.2731 139.357 76.5578C136.809 72.9906 132.393 69.0841 127.128 72.4812C121.523 76.0475 124.41 84.2001 116.937 92.692C114.389 95.5796 114.729 98.9767 117.446 105.77C121.862 116.471 142.753 122.245 154.133 132.436C156.85 131.247 158.718 128.529 160.077 126.491C152.434 118.509 149.377 111.035 147.169 105.6C144.452 99.316 141.394 95.7497 135.45 90.9926C138.507 92.1816 140.886 93.3707 142.243 94.3897C143.771 95.4086 145.979 95.5787 148.018 94.8992C155.323 92.3534 159.229 82.1621 159.569 75.709Z" fill="#EFEFEF"/>
<path d="M233.451 78.4265C232.941 84.8805 228.186 81.6535 225.638 80.4644C220.543 78.2564 215.447 76.728 209.503 76.728C203.558 76.728 195.915 77.2374 189.292 78.936C180.12 81.4834 177.402 81.3141 173.326 79.2754C169.25 77.0673 162.118 71.6323 162.118 71.6323C162.118 71.6323 161.947 73.3309 163.646 75.5389C165.853 78.2564 170.78 81.6535 177.403 83.8607C180.63 84.8805 183.178 84.2001 186.066 83.5213C201.182 79.7849 217.146 79.1053 230.564 87.2578C231.244 87.5972 233.622 86.5782 234.641 85.0498C235.998 82.8426 233.451 78.4265 233.451 78.4265Z" fill="black"/>
<path d="M156.172 143.136C157.531 143.986 159.229 144.495 161.097 146.024C161.097 146.024 159.569 146.024 158.89 145.345C158.04 144.836 156.342 143.307 156.172 143.136Z" fill="#001423"/>
<path d="M205.257 8.45089C204.747 6.92245 201.01 4.2041 192.349 4.2041C183.007 4.2041 180.289 7.09172 180.12 8.62016C180.12 9.12964 179.441 14.5655 179.271 16.7727C179.271 16.7727 179.271 19.4902 179.44 23.566C179.61 26.2836 180.289 27.812 180.629 31.3792C180.968 35.1148 181.988 37.493 183.856 40.5507C184.706 41.0593 185.384 41.5697 186.234 41.7398C189.631 42.4185 195.576 42.5886 198.803 41.7398C200.67 41.2303 203.049 38.0033 203.558 35.1157C204.237 31.5493 204.916 29.0011 205.086 26.7939C205.426 24.5867 205.596 19.6603 205.765 18.3011C206.275 14.5655 205.426 8.79026 205.257 8.45089Z" fill="#EFEFEF"/>
<path d="M187.423 218.378C187.423 218.378 196.425 222.285 218.675 218.887C218.675 218.887 212.391 250.479 215.279 266.273C215.279 266.273 218.165 270.35 239.566 278.162C239.566 278.162 249.077 280.54 248.738 285.297C248.738 285.297 249.077 286.316 237.528 285.975C225.979 285.635 215.109 283.597 207.465 283.597C199.822 283.597 191.67 283.937 190.312 281.73C188.783 279.692 190.651 274.426 192.859 271.368C195.238 268.142 194.557 265.763 194.388 259.989C193.877 244.873 182.327 229.248 187.423 218.378Z" fill="black"/>
<path opacity="0.3" d="M191.33 273.747C194.217 275.105 198.464 276.125 201.691 276.125C201.691 276.125 200.501 281.73 202.369 285.127C204.237 288.524 188.782 286.486 188.782 286.486L188.103 274.427L191.33 273.747Z" fill="black"/>
<path opacity="0.3" d="M236.338 288.354C239.056 287.504 240.925 284.447 238.717 281.56C236.338 278.673 234.3 278.163 237.357 277.994C240.415 277.824 251.624 284.617 251.624 284.617L245.849 289.882L236.338 288.354Z" fill="black"/>
<path opacity="0.3" d="M185.045 227.889C188.952 229.248 194.896 229.587 199.992 229.417C205.086 229.248 212.73 228.567 217.656 226.87C222.581 225.171 220.543 228.738 220.543 228.738L217.825 231.286C217.825 231.286 211.371 233.833 200.841 233.664C188.443 233.494 184.706 232.135 184.706 232.135L185.045 227.889Z" fill="black"/>
<path opacity="0.3" d="M185.384 236.381C189.292 237.741 195.235 238.08 200.331 237.91C205.426 237.741 212.22 237.741 217.146 235.872C219.183 235.193 217.995 238.08 217.995 238.08L217.146 239.608C217.146 239.608 210.521 241.987 200.161 241.816C187.762 241.646 185.554 240.627 185.554 240.627L185.384 236.381Z" fill="black"/>
<path d="M174.175 117.321C174.175 118.51 187.423 125.134 194.726 126.493C202.03 127.851 217.316 126.493 219.693 125.983L219.353 128.361C219.353 128.361 201.18 131.079 187.253 127.342C173.326 123.606 174.855 122.756 174.855 122.756L174.175 117.321Z" fill="black"/>
<path d="M145.811 262.197C147.848 263.217 155.152 265.085 159.908 264.066C160.586 263.896 159.908 252.346 161.776 247.081C164.494 239.778 168.91 233.833 170.947 220.926C163.813 220.246 155.662 218.378 151.415 217.019C145.981 233.664 147.849 247.93 145.811 262.197Z" fill="#EFEFEF"/>
<path d="M157.191 272.898C158.38 273.237 159.229 274.596 159.569 273.748C160.248 272.218 158.38 269.332 158.21 267.294C158.21 267.124 158.21 267.294 158.21 267.124C156.682 265.765 146.321 265.595 147.001 266.274C145.812 268.482 143.944 268.142 143.265 272.559C142.926 274.766 145.643 272.898 148.19 272.728C143.604 275.785 138.339 279.692 137.49 283.088C136.471 287.844 138.169 289.203 143.265 291.751C147.681 292.77 152.946 292.94 157.022 292.77C161.608 291.92 162.458 289.713 161.098 286.656C159.059 282.069 157.701 276.125 157.191 272.898Z" fill="#EFEFEF"/>
<path d="M159.059 52.2705C164.664 55.4975 172.477 54.6486 175.364 54.4785C176.044 54.4785 182.838 53.2895 183.177 53.4587C183.856 53.6288 183.856 54.1383 183.856 54.1383C183.856 54.1383 181.309 55.4967 175.534 55.836C170.099 56.1754 163.645 55.836 160.079 54.1383C155.832 52.2705 159.059 52.2705 159.059 52.2705Z" fill="black"/>
<path d="M216.806 55.4973C217.825 56.176 224.449 58.7243 227.337 61.7812C229.885 64.4995 228.526 64.3294 228.016 63.6498C227.337 62.8001 222.071 59.2338 220.033 58.3849C217.995 57.5361 215.447 56.0068 215.447 55.6674C215.447 55.328 216.806 55.4973 216.806 55.4973Z" fill="black"/>
<path d="M158.209 125.982C163.135 125.643 168.23 126.832 171.457 130.228C173.156 131.927 175.873 133.795 175.534 135.493C175.534 136.003 174.514 137.362 173.666 138.381C173.157 139.06 171.628 140.588 171.118 141.098C170.439 141.608 168.061 143.477 167.552 143.816C167.042 144.156 166.363 145.006 165.853 145.175C164.155 146.025 162.287 145.345 160.588 144.496C158.891 143.647 160.928 143.477 159.06 142.118C154.474 138.891 151.926 136.682 153.795 130.398C153.964 129.209 155.832 127.85 158.209 125.982Z" fill="#EFEFEF"/>
<path opacity="0.4" d="M114.9 87.0887C99.6143 93.2033 60.7195 112.566 49.6802 118.511C58.8517 124.285 63.0976 138.212 64.4568 152.309C64.6261 153.668 64.7962 154.857 64.9663 156.216C65.1355 157.405 65.3056 158.253 65.4749 158.764C65.4749 158.934 65.4749 159.273 65.645 159.443C75.6662 132.098 111.502 103.225 112.862 101.016C113.54 99.9975 112.012 95.5814 114.39 91.3363C117.448 85.8996 123.393 83.5215 114.9 87.0887Z" fill="black"/>
<path opacity="0.4" d="M151.247 215.321C159.059 199.696 159.229 184.749 159.059 167.255C159.059 159.951 164.324 149.59 161.608 152.478C151.416 163.857 125.77 185.258 107.257 186.446C133.243 185.598 143.434 198.676 151.247 215.321Z" fill="black"/>
<path d="M34.7334 132.946C44.4144 125.983 94.5186 99.3179 106.578 95.5806C118.636 91.6741 114.9 87.0879 114.9 87.0879C114.9 87.0879 65.9843 108.148 36.7713 126.322" fill="black"/>
<path opacity="0.4" d="M177.402 83.8617C173.496 82.3332 170.439 86.9194 171.458 91.3355C172.478 95.7515 181.649 100.676 181.139 116.812C180.799 130.06 177.912 135.494 177.912 135.494L171.458 127.343C171.458 127.343 170.439 108.999 168.231 106.281C166.024 103.564 159.059 98.6383 156.342 96.0909C153.624 93.5427 159.399 90.1464 159.059 85.3901C158.72 80.8048 161.947 71.6333 161.947 71.6333L177.402 83.8617Z" fill="black"/>
<path opacity="0.4" d="M201.011 156.215C200.671 168.953 203.559 187.806 204.747 196.808C205.936 205.81 207.465 206.489 204.747 210.566C202.03 214.472 198.463 220.926 198.463 220.926L186.744 219.907C186.744 219.907 196.085 208.018 196.594 205.81C197.103 203.602 191.838 186.788 191.838 186.788L201.011 156.215Z" fill="black"/>
<path opacity="0.4" d="M178.422 37.3245C180.8 42.5886 183.687 44.9667 188.272 46.496C190.99 47.515 201.69 48.8741 205.936 44.1179C207.804 41.9098 206.615 35.9653 206.615 35.9653L196.934 43.7777L183.856 41.4004L182.328 37.4938L178.422 37.3245Z" fill="black"/>
<path d="M179.44 49.0435C183.856 51.9311 194.896 54.6486 197.953 55.1581C201.01 55.8368 205.935 51.9311 208.314 50.9121C210.862 49.723 215.278 49.0435 220.373 53.6296C220.882 54.1391 219.184 56.3471 219.184 56.3471C219.013 56.177 217.995 56.177 216.635 55.4974C215.277 54.8187 214.088 54.3084 212.05 54.4785C203.557 55.4974 202.199 58.3851 194.726 56.6857C187.253 54.9863 185.384 53.6288 178.082 53.9682" stroke="black" stroke-width="1.586" stroke-linejoin="round"/>
<path d="M151.586 208.187C151.247 207.847 151.926 207.508 151.586 207.508C149.379 207.508 146.321 205.809 144.622 203.431C137.319 192.901 126.618 185.938 107.256 186.447C78.2127 187.126 66.6631 175.238 64.4559 152.479C63.2668 140.08 59.8697 128.021 52.9063 121.227L48.8296 123.775C56.6419 130.569 59.1902 141.609 60.8887 156.725C63.6062 179.484 81.9492 190.014 103.35 190.354C125.599 190.693 133.582 195.279 141.904 206.49C144.621 210.056 147.679 211.245 150.056 211.755L151.586 208.187Z" fill="black"/>
<path opacity="0.4" d="M230.394 98.9775C230.904 101.525 232.262 106.45 234.98 108.828C236.169 110.017 236.339 110.356 235.32 110.356C234.3 110.356 226.827 110.017 226.827 110.017L224.789 106.45L230.394 98.9775Z" fill="black"/>
</g>
<defs>
<clipPath id="clip0_140_35">
<rect width="256" height="296.742" fill="white"/>
</clipPath>
</defs>
</svg>
