<svg width="42" height="42" viewBox="0 0 42 42" fill="none" xmlns="http://www.w3.org/2000/svg">
<rect x="1" y="1" width="40" height="40" rx="15" stroke="black"/>
<path d="M24.5001 32.6668V28.0002C24.6624 26.5387 24.2433 25.072 23.3334 23.9168C26.8334 23.9168 30.3334 21.5835 30.3334 17.5002C30.4268 16.0418 30.0184 14.6068 29.1668 13.4168C29.4934 12.0752 29.4934 10.6752 29.1668 9.3335C29.1668 9.3335 28.0001 9.3335 25.6668 11.0835C22.5868 10.5002 19.4134 10.5002 16.3334 11.0835C14.0001 9.3335 12.8334 9.3335 12.8334 9.3335C12.4834 10.6752 12.4834 12.0752 12.8334 13.4168C11.9839 14.602 11.5716 16.0451 11.6668 17.5002C11.6668 21.5835 15.1668 23.9168 18.6668 23.9168C18.2118 24.4885 17.8734 25.1418 17.6751 25.8418C17.4768 26.5418 17.4184 27.2768 17.5001 28.0002V32.6668" stroke="black" stroke-linecap="round" stroke-linejoin="round"/>
<path d="M17.4999 27.9998C12.2383 30.3332 11.6666 25.6665 9.33325 25.6665" stroke="black" stroke-linecap="round" stroke-linejoin="round"/>
</svg>
