<svg width="20" height="20" viewBox="0 0 20 20" fill="none" xmlns="http://www.w3.org/2000/svg">
<path d="M12.5 18.3332V14.9998C12.6159 13.9559 12.3166 12.9083 11.6667 12.0832C14.1667 12.0832 16.6667 10.4165 16.6667 7.49984C16.7333 6.45817 16.4417 5.43317 15.8333 4.58317C16.0667 3.62484 16.0667 2.62484 15.8333 1.6665C15.8333 1.6665 15 1.6665 13.3333 2.9165C11.1333 2.49984 8.86666 2.49984 6.66666 2.9165C4.99999 1.6665 4.16666 1.6665 4.16666 1.6665C3.91666 2.62484 3.91666 3.62484 4.16666 4.58317C3.55988 5.42974 3.26538 6.46049 3.33332 7.49984C3.33332 10.4165 5.83332 12.0832 8.33332 12.0832C8.00832 12.4915 7.76666 12.9582 7.62499 13.4582C7.48332 13.9582 7.44166 14.4832 7.49999 14.9998V18.3332" stroke="black" stroke-width="0.833333" stroke-linecap="round" stroke-linejoin="round"/>
<path d="M7.50002 15.0002C3.74169 16.6668 3.33335 13.3335 1.66669 13.3335" stroke="black" stroke-width="0.833333" stroke-linecap="round" stroke-linejoin="round"/>
</svg>
