<svg width="40" height="40" viewBox="0 0 40 40" fill="none" xmlns="http://www.w3.org/2000/svg">
<rect x="0.5" y="0.5" width="39" height="39" rx="14.5" stroke="black"/>
<path d="M24.6667 13.3335C26.5233 13.3335 28.3037 14.071 29.6165 15.3837C30.9293 16.6965 31.6667 18.477 31.6667 20.3335V28.5002H27.0001V20.3335C27.0001 19.7147 26.7542 19.1212 26.3167 18.6836C25.8791 18.246 25.2856 18.0002 24.6667 18.0002C24.0479 18.0002 23.4544 18.246 23.0168 18.6836C22.5792 19.1212 22.3334 19.7147 22.3334 20.3335V28.5002H17.6667V20.3335C17.6667 18.477 18.4042 16.6965 19.717 15.3837C21.0298 14.071 22.8102 13.3335 24.6667 13.3335Z" stroke="black" stroke-linecap="round" stroke-linejoin="round"/>
<path d="M12.9999 14.5H8.33325V28.5H12.9999V14.5Z" stroke="black" stroke-linecap="round" stroke-linejoin="round"/>
<path d="M10.6666 11.0002C11.9552 11.0002 12.9999 9.95549 12.9999 8.66683C12.9999 7.37816 11.9552 6.3335 10.6666 6.3335C9.37792 6.3335 8.33325 7.37816 8.33325 8.66683C8.33325 9.95549 9.37792 11.0002 10.6666 11.0002Z" stroke="black" stroke-linecap="round" stroke-linejoin="round"/>
</svg>
