<svg width="80" height="80" viewBox="0 0 80 80" fill="none" xmlns="http://www.w3.org/2000/svg">
<g clip-path="url(#clip0_140_103)">
<path d="M77.4404 0H2.55957C1.14592 0 0 1.14617 0 2.55957V77.4404C0 78.8538 1.14592 80 2.55957 80H77.4404C78.8541 80 80 78.8538 80 77.4404V2.55957C80 1.14617 78.8541 0 77.4404 0ZM31.2346 49.4733C28.8079 51.5968 25.708 52.7662 22.506 52.7662C15.3116 52.7662 9.45836 47.0328 9.45836 39.9853C9.45836 32.9542 15.3116 27.234 22.506 27.234C25.7124 27.234 28.8018 28.3935 31.2052 30.499C32.1968 31.3672 32.2963 32.8751 31.4279 33.8664C30.5594 34.858 29.0518 34.9575 28.0603 34.0888C26.5276 32.7463 24.5549 32.0066 22.506 32.0066C17.9431 32.0066 14.2309 35.5856 14.2309 39.9853C14.2309 44.4008 17.9431 47.9931 22.506 47.9931C24.5516 47.9931 26.5353 47.2429 28.0915 45.8812C29.0833 45.0128 30.5909 45.1139 31.4589 46.1057C32.3268 47.0978 32.2265 48.6056 31.2346 49.4733ZM47.5954 42.3864H42.7862V47.1958C42.7862 48.5138 41.7179 49.5821 40.3997 49.5821C39.0815 49.5821 38.0131 48.5138 38.0131 47.1958V42.3864H33.2042C31.8863 42.3864 30.8177 41.318 30.8177 40.0001C30.8177 38.6822 31.886 37.6138 33.2042 37.6138H38.0131V32.8047C38.0131 31.4868 39.0815 30.4184 40.3997 30.4184C41.7179 30.4184 42.7862 31.4868 42.7862 32.8047V37.6138H47.5954C48.9133 37.6138 49.9819 38.6822 49.9819 40.0001C49.9819 41.318 48.9136 42.3864 47.5954 42.3864ZM68.1551 42.3864H63.3459V47.1958C63.3459 48.5138 62.2776 49.5821 60.9594 49.5821C59.6415 49.5821 58.5729 48.5138 58.5729 47.1958V42.3864H53.7639C52.446 42.3864 51.3774 41.318 51.3774 40.0001C51.3774 38.6822 52.4458 37.6138 53.7639 37.6138H58.5729V32.8047C58.5729 31.4868 59.6412 30.4184 60.9594 30.4184C62.2773 30.4184 63.3459 31.4868 63.3459 32.8047V37.6138H68.1551C69.473 37.6138 70.5416 38.6822 70.5416 40.0001C70.5416 41.318 69.4733 42.3864 68.1551 42.3864Z" fill="white"/>
</g>
<defs>
<clipPath id="clip0_140_103">
<rect width="80" height="80" fill="white"/>
</clipPath>
</defs>
</svg>
