<svg width="80" height="80" viewBox="0 0 80 80" fill="none" xmlns="http://www.w3.org/2000/svg">
<path d="M75.4861 0.078125L68.8314 72.1584L39.9995 79.9216L11.1672 72.1584L4.51391 0.078125H75.4861ZM62.0766 14.7345H39.9736H17.4791L18.5548 23.4389H39.9736H41.1767L39.9736 23.9397L19.3377 32.5344L20.022 41.0427L39.9736 41.1073L50.667 41.1412L49.9825 52.4859L39.9734 55.3039V55.295L39.8914 55.3178L30.2252 52.8776L29.6386 45.8355H29.6066H20.6406H20.6091L21.7827 59.4303L39.9737 64.8098V64.8001L40.0066 64.8098L58.1002 59.5283L60.4472 32.5344H39.9737H39.9233L39.9737 32.5125L61.1972 23.4389L62.0766 14.7345Z" fill="white"/>
</svg>
