<svg width="80" height="80" viewBox="0 0 80 80" fill="none" xmlns="http://www.w3.org/2000/svg">
<g clip-path="url(#clip0_140_112)">
<path d="M10 65.0399C10 67.7599 11.3333 70.2666 14 72.5599C16.6667 74.8533 20.32 76.6666 24.96 77.9999C29.6 79.3333 34.6133 79.9999 40 79.9999C45.3867 79.9999 50.4 79.3333 55.04 77.9999C59.68 76.6666 63.3333 74.8533 66 72.5599C68.6667 70.2666 70 67.7599 70 65.0399V56.5599C70 59.2799 68.64 61.6799 65.92 63.7599C63.2 65.8399 59.6 67.3866 55.12 68.3999C50.64 69.4133 45.6 69.9466 40 69.9999C34.4 70.0533 29.36 69.5199 24.88 68.3999C20.4 67.2799 16.8 65.7333 14.08 63.7599C11.36 61.7866 10 59.3866 10 56.5599V65.0399ZM10 49.9999C10 52.7199 11.3333 55.2266 14 57.5199C16.6667 59.8133 20.32 61.6533 24.96 63.0399C29.6 64.4266 34.6133 65.0933 40 65.0399C45.3867 64.9866 50.4 64.3199 55.04 63.0399C59.68 61.7599 63.3333 59.9199 66 57.5199C68.6667 55.1199 70 52.6133 70 49.9999V41.5999C70 44.2666 68.64 46.6399 65.92 48.7199C63.2 50.7999 59.6 52.3733 55.12 53.4399C50.64 54.5066 45.6 55.0399 40 55.0399C34.4 55.0399 29.36 54.5066 24.88 53.4399C20.4 52.3733 16.8 50.7999 14.08 48.7199C11.36 46.6399 10 44.2666 10 41.5999V49.9999ZM10 35.0399C10 37.7599 11.3333 40.2666 14 42.5599C16.6667 44.8533 20.32 46.6666 24.96 47.9999C29.6 49.3333 34.6133 49.9999 40 49.9999C45.3867 49.9999 50.4 49.3333 55.04 47.9999C59.68 46.6666 63.3333 44.8533 66 42.5599C68.6667 40.2666 70 37.7599 70 35.0399V26.5599C70 29.2799 68.64 31.6799 65.92 33.7599C63.2 35.8399 59.6 37.3866 55.12 38.3999C50.64 39.4133 45.6 39.9466 40 39.9999C34.4 40.0533 29.36 39.5199 24.88 38.3999C20.4 37.2799 16.8 35.7333 14.08 33.7599C11.36 31.7866 10 29.3866 10 26.5599V35.0399ZM10 19.9999C10 22.7199 11.3333 25.2266 14 27.5199C16.6667 29.8133 20.32 31.6533 24.96 33.0399C29.6 34.4266 34.6133 35.0933 40 35.0399C45.3867 34.9866 50.4 34.3199 55.04 33.0399C59.68 31.7599 63.3333 29.9199 66 27.5199C68.6667 25.1199 70 22.6133 70 19.9999V15.0399C70 12.3199 68.6667 9.81326 66 7.51993C63.3333 5.22659 59.68 3.41326 55.04 2.07993C50.4 0.746594 45.3867 0.0532608 40 -7.2545e-05C34.6133 -0.0534059 29.6 0.639928 24.96 2.07993C20.32 3.51993 16.6667 5.33326 14 7.51993C11.3333 9.70659 10 12.2133 10 15.0399V19.9999Z" fill="white"/>
</g>
<defs>
<clipPath id="clip0_140_112">
<rect width="80" height="80" fill="white"/>
</clipPath>
</defs>
</svg>
