<svg width="80" height="80" viewBox="0 0 80 80" fill="none" xmlns="http://www.w3.org/2000/svg">
<path d="M51.73 30.5673C46.52 30.5673 42.2975 34.7898 42.2975 39.9998C42.2975 45.2098 46.52 49.4323 51.73 49.4323H52.035C57.245 49.4323 61.4675 45.2098 61.4675 39.9998C61.4675 34.7898 57.245 30.5673 52.035 30.5673H51.73ZM52.035 54.0273H51.73C43.9825 54.0273 37.7025 47.7473 37.7025 39.9998C37.7025 32.2523 43.9825 25.9723 51.73 25.9723H52.035C59.7825 25.9723 66.0625 32.2523 66.0625 39.9998C66.0625 47.7473 59.7825 54.0273 52.035 54.0273ZM27.965 54.0273C22.755 54.0273 18.53 58.2498 18.53 63.4598C18.53 68.6698 22.7525 72.8923 27.9625 72.8923C27.99 72.8923 28.02 72.8923 28.0475 72.8923H28.0425C28.05 72.8923 28.06 72.8923 28.07 72.8923C33.3725 72.8923 37.6775 68.6073 37.705 63.3098V54.0273H27.965ZM28.04 77.4898C28.0075 77.4898 27.9675 77.4898 27.9275 77.4898C20.18 77.4898 13.9 71.2098 13.9 63.4623C13.9 55.7148 20.18 49.4348 27.9275 49.4348C27.94 49.4348 27.9525 49.4348 27.965 49.4348H42.2975V63.3098C42.2675 71.1473 35.905 77.4898 28.065 77.4898C28.0575 77.4898 28.05 77.4898 28.0425 77.4898H28.04ZM27.965 30.5673C22.755 30.5673 18.5325 34.7898 18.5325 39.9998C18.5325 45.2098 22.755 49.4348 27.965 49.4348L37.7025 49.4323V30.5698L27.965 30.5673ZM42.295 54.0273H27.965C20.2175 54.0273 13.9375 47.7473 13.9375 39.9998C13.9375 32.2523 20.2175 25.9723 27.965 25.9723H42.2975V54.0273H42.295ZM27.965 7.10732C22.755 7.10732 18.5325 11.3298 18.5325 16.5398C18.5325 21.7498 22.755 25.9723 27.965 25.9723H37.7025V7.10482L27.965 7.10732ZM42.295 30.5673H27.965C20.2175 30.5673 13.935 24.2873 13.935 16.5373C13.935 8.78732 20.215 2.50732 27.965 2.50732H42.2975V30.5648L42.295 30.5673ZM42.295 25.9723H52.035C57.235 25.9598 61.4425 21.7423 61.4425 16.5398C61.4425 11.3373 57.2325 7.11982 52.0325 7.10732H42.295V25.9723ZM52.035 30.5673L37.7025 30.5698V2.50982H52.035C59.7825 2.50982 66.065 8.78982 66.065 16.5398C66.065 24.2898 59.785 30.5673 52.035 30.5673Z" fill="white"/>
</svg>
