<svg width="80" height="80" viewBox="0 0 80 80" fill="none" xmlns="http://www.w3.org/2000/svg">
<path d="M30.2997 32.5577C29.5608 30.9239 29.2295 29.0183 29.7941 27.2872C30.3584 25.5173 31.6227 24.0977 32.8869 22.775C36.4064 19.2545 40.7439 16.668 44.1863 13.0897C46.092 11.1252 47.6672 8.77188 48.2116 6.06828C48.6591 4.08469 48.4453 2.04266 48.037 0.078125C49.8652 2.15922 50.4681 5.13484 49.9428 7.81891C49.3791 10.8333 47.7059 13.4977 45.7419 15.7925C44.1667 17.6405 42.3577 19.2741 40.4714 20.7914C38.2738 22.5613 36.1152 24.467 34.7345 26.9566C33.567 28.9789 33.2947 31.4684 34.0924 33.6663C35.3956 37.4391 38.4292 40.2398 40.0827 43.7988C38.2541 42.1844 36.4652 40.5119 34.792 38.7423C33.0424 36.8752 31.3889 34.8917 30.2997 32.5577ZM40.2184 29.6012C39.888 32.6937 41.5017 35.6109 43.4277 37.9061C44.3608 38.9367 45.1583 40.2009 45.1969 41.6403C45.2361 43.565 44.1475 45.355 42.7463 46.6186C43.0774 46.5802 43.3106 46.2881 43.583 46.1327C45.6834 44.7906 47.7056 43.0986 48.7364 40.7847C49.4172 39.2092 49.2617 37.3419 48.3674 35.883C47.3167 34.1716 45.9363 32.6545 45.1195 30.7877C44.6716 29.7375 44.5161 28.5123 44.8858 27.4038C45.3724 25.9064 46.4224 24.6809 47.5311 23.6112C50.5842 20.7137 54.2794 18.6514 57.8192 16.3958C53.3459 17.6792 48.9313 19.4492 45.1583 22.2306C42.7659 24.0198 40.5492 26.5091 40.2184 29.6012ZM61.4761 44.2269C63.5961 44.3438 65.6764 45.8994 66.0658 48.0389C66.4355 49.8866 65.5411 51.7145 64.3931 53.1147C62.5064 55.3706 59.9584 56.9852 57.392 58.3661C57.1386 58.5209 56.9249 58.7156 56.7303 58.9298C60.1145 58.0739 63.4981 56.7909 66.2408 54.593C67.7572 53.3287 69.0992 51.6556 69.3913 49.6525C69.6636 47.9219 68.9444 46.1325 67.6605 44.9852C66.1042 43.5648 63.9072 43.0402 61.8452 43.3127C60.6588 43.4681 59.3559 43.7209 58.5392 44.7128C59.512 44.5189 60.4642 44.1295 61.4761 44.2269ZM19.2531 49.7886C21.8005 50.4694 24.4263 50.6641 27.0324 50.8392C29.3661 50.9947 31.7003 51.0339 34.0538 51.0142C40.1214 50.9175 46.2281 50.5086 52.1792 49.1862C52.743 49.0503 53.3656 48.953 53.8719 48.603C54.8636 47.9608 55.952 47.455 57.0222 46.9494C52.1792 47.7273 47.317 48.3892 42.4163 48.7002C37.4569 49.0112 32.4583 49.2058 27.4799 48.8753C26.0602 48.7394 24.6013 48.6611 23.2789 48.1163C22.9674 47.9803 22.5394 47.7086 22.6949 47.2995C22.9869 46.7744 23.5703 46.5219 24.0759 46.2495C26.2156 45.2381 28.5492 44.6744 30.8249 44.0131C26.9153 43.9544 23.0255 44.9461 19.4477 46.4828C18.65 46.872 17.7555 47.183 17.1139 47.8444C16.8605 48.1161 16.8605 48.5837 17.1525 48.8166C17.7361 49.3417 18.5136 49.575 19.2531 49.7886ZM50.76 55.1375C47.3563 55.7405 43.9328 56.305 40.4903 56.4795C36.7174 56.7323 32.9444 56.5181 29.2105 56.1294C28.4911 56.032 27.7713 55.9156 27.1297 55.5852C26.7991 55.3905 26.4686 55.0795 26.4881 54.6705C26.5267 54.0289 27.0709 53.5819 27.4603 53.1148C26.2549 53.5428 25.0488 53.9897 24.0375 54.788C23.6091 55.1186 23.1816 55.6433 23.298 56.2267C23.4738 56.9073 24.1349 57.3158 24.7183 57.6267C26.157 58.3663 27.7714 58.6964 29.3472 58.9883C33.3333 59.6305 37.3983 59.65 41.4045 59.377C45.6453 59.0466 49.8652 58.3467 53.9688 57.1406C52.8019 56.6159 51.6931 56.0123 50.76 55.1375ZM29.3856 61.8673C28.2966 62.1783 27.1878 62.5481 26.2934 63.2669C25.8453 63.617 25.4958 64.2206 25.71 64.7845C25.9824 65.5039 26.6631 65.9325 27.3042 66.3009C28.9774 67.2156 30.8636 67.643 32.7111 67.9741C36.8931 68.6348 41.1908 68.5378 45.353 67.7991C47.8227 67.332 50.2928 66.6708 52.5875 65.6405C51.09 65.018 49.6317 64.3175 48.2316 63.5009C45.8005 63.9288 43.3494 64.3764 40.86 64.5319C37.5738 64.7847 34.2477 64.5123 30.9608 64.1041C30.1827 63.9289 29.2105 63.8513 28.6853 63.1703C28.4136 62.6058 29.0356 62.1973 29.3856 61.8673ZM55.9914 74.3722C58.7139 73.8091 61.4566 73.1661 63.9458 71.9025C64.7233 71.4545 65.6764 70.9683 65.9298 70.0353C66.0658 69.1408 65.1322 68.6737 64.4709 68.3041C64.8792 68.7717 65.1516 69.452 64.7428 69.9963C64.062 70.9108 62.8958 71.2605 61.8647 71.6106C58.6366 72.5247 55.2909 72.8944 51.9655 73.2641C43.1553 74.0613 34.2864 74.2559 25.4767 73.5169C22.5205 73.2053 19.5053 72.8748 16.6855 71.8248C16.2386 71.6302 15.5578 71.4355 15.5578 70.8323C15.7324 70.3083 16.2386 70.0156 16.6855 69.7628C18.7081 68.7323 20.9642 68.168 23.2202 68.032C22.5595 67.6428 21.7814 67.6042 21.023 67.6237C19.1361 67.682 17.2886 68.168 15.4997 68.7717C13.9631 69.3348 12.3878 69.9577 11.1622 71.0859C10.6761 71.5133 10.2292 72.33 10.7342 72.9139C11.5124 73.7503 12.7184 73.9639 13.7874 74.2167C19.7777 75.2478 25.8453 75.8305 31.9141 76.0447C39.9658 76.2788 48.0756 75.9284 55.9914 74.3722ZM63.9653 75.4228C60.3088 76.5897 56.5166 77.2312 52.7431 77.7566C46.2281 78.5733 39.6542 78.8261 33.1 78.632C29.1133 78.4766 25.1266 78.2042 21.1975 77.5423C22.1116 78.1648 23.2399 78.3591 24.2903 78.6511C28.7055 79.5848 33.2364 79.7598 37.7294 79.8958C44.3216 80.0127 50.9149 79.7598 57.4109 78.7289C60.4842 78.1852 63.5764 77.5234 66.3375 76.0841C67.7773 75.3256 69.2363 74.1581 69.488 72.4666C68.0298 74.022 65.9298 74.742 63.9653 75.4228Z" fill="white"/>
</svg>
