<svg width="80" height="80" viewBox="0 0 80 80" fill="none" xmlns="http://www.w3.org/2000/svg">
<path d="M57.345 5.19006L28.54 72.6251L26.7475 70.8226L57.345 5.19006ZM57.775 2.51006C56.665 4.30256 31.4325 17.3176 23.86 29.5301C16.2875 41.7451 14.125 51.3601 16.8725 60.4026C19.6175 69.4401 24.8675 69.0351 27.8575 72.0151C30.4225 75.3001 34.38 77.3926 38.83 77.3926C39.735 77.3926 40.62 77.3051 41.4775 77.1401L41.39 77.1551C49.8775 75.2401 58.0575 69.5751 62.1275 53.7001C63.46 48.2726 64.225 42.0401 64.225 35.6301C64.225 28.7426 63.3425 22.0626 61.6825 15.6951L61.805 16.2426C60.575 10.7926 59.19 6.20256 57.525 1.74756L57.775 2.51006Z" fill="white"/>
</svg>
