<svg width="80" height="80" viewBox="0 0 80 80" fill="none" xmlns="http://www.w3.org/2000/svg">
<path d="M35.7825 55.5274C37.1575 55.5899 38.5625 55.6349 39.985 55.6349C41.4225 55.6349 42.8425 55.6049 44.235 55.5274C42.8425 57.3274 41.4675 58.9199 40.0125 60.4374L40.0325 60.4174C38.585 58.9174 37.195 57.3224 35.885 55.6624L35.7825 55.5274ZM21.5375 53.5274C24.245 54.2149 27.5475 54.7999 30.9175 55.1599L31.245 55.1874C33.3075 58.0199 35.3925 60.5124 37.63 62.8574L37.6025 62.8274C34.325 66.4849 29.9025 69.0549 24.9 69.9774L24.7625 69.9974C24.7525 69.9974 24.7425 69.9974 24.7325 69.9974C24.1125 69.9974 23.5275 69.8449 23.015 69.5749L23.035 69.5849C20.955 68.3974 20.0525 63.8549 20.755 58.0174C20.9225 56.5799 21.1975 55.0674 21.535 53.5249L21.5375 53.5274ZM58.495 53.4949C58.79 54.6799 59.0675 56.1899 59.265 57.7249L59.2875 57.9399C60.005 63.7749 59.12 68.3124 57.0575 69.5249C56.5975 69.7799 56.0475 69.9299 55.4625 69.9299C55.405 69.9299 55.3475 69.9274 55.29 69.9249H55.2975C50.165 68.9874 45.745 66.4349 42.475 62.8224L42.4575 62.8024C44.655 60.4949 46.725 58.0074 48.6225 55.3899L48.7675 55.1799C52.4575 54.7949 55.765 54.1999 58.9875 53.3874L58.495 53.4924V53.4949ZM24.46 44.1649C25.085 45.3899 25.74 46.6099 26.46 47.8349C27.1783 49.0532 27.9125 50.2432 28.6625 51.4049C26.4925 51.0874 24.3975 50.6874 22.395 50.1999C22.9575 48.2324 23.6625 46.1949 24.4575 44.1599L24.46 44.1649ZM55.53 44.1024C56.3575 46.1549 57.06 48.2024 57.6425 50.1874C55.6425 50.6774 53.53 51.0924 51.345 51.4049C52.095 50.2324 52.845 49.0249 53.5475 47.7874C54.25 46.5699 54.9075 45.3249 55.535 44.0999L55.53 44.1024ZM19.0475 30.7299C20.1375 34.4249 21.3075 37.5149 22.67 40.4949L22.4825 40.0399C21.3175 42.5524 20.165 45.6249 19.22 48.7874L19.09 49.2999C17.325 48.7574 15.905 48.2249 14.5225 47.6274L14.81 47.7374C9.40001 45.4349 5.90001 42.4074 5.90001 40.0074C5.90001 37.6074 9.40001 34.5649 14.81 32.2724C16.1225 31.7099 17.5625 31.2024 19.0475 30.7299ZM60.895 30.7174C62.4075 31.1849 63.845 31.7074 65.19 32.2724C70.6 34.5849 74.1 37.6074 74.1 40.0074C74.085 42.4074 70.585 45.4424 65.175 47.7399C63.8625 48.3024 62.425 48.8074 60.9425 49.2799C59.8425 45.5724 58.6725 42.4849 57.315 39.4999L57.505 39.9699C58.665 37.4599 59.82 34.3874 60.7625 31.2249L60.895 30.7099V30.7174ZM51.325 28.6099C53.4975 28.9324 55.59 29.3274 57.5925 29.8199C57.03 31.7949 56.3275 33.8249 55.53 35.8599C54.905 34.6424 54.25 33.4149 53.53 32.1924C52.8275 30.9674 52.0775 29.7749 51.3275 28.6124L51.325 28.6099ZM28.645 28.6099C27.895 29.7874 27.145 30.9924 26.445 32.2349C25.7425 33.4524 25.085 34.6774 24.46 35.9024C23.6325 33.8524 22.93 31.8099 22.3475 29.8199C24.3475 29.3524 26.455 28.9349 28.6425 28.6149L28.645 28.6099ZM40 27.8149C42.3125 27.8149 44.615 27.9199 46.88 28.1049C48.1483 29.9232 49.38 31.8599 50.575 33.9149C51.7367 35.9149 52.7967 37.9415 53.755 39.9949C52.7925 42.0424 51.7375 44.0874 50.59 46.0874C49.4025 48.1499 48.175 50.1124 46.9025 51.9299C44.6275 52.1274 42.3225 52.2349 39.9975 52.2349C37.685 52.2349 35.3825 52.1249 33.1175 51.9449C31.85 50.1274 30.6125 48.1824 29.4225 46.1349C28.2608 44.1349 27.2008 42.1082 26.2425 40.0549C27.19 38.0024 28.26 35.9524 29.4075 33.9499C30.595 31.8874 31.8225 29.9324 33.095 28.1149C35.37 27.9149 37.675 27.8099 40 27.8099V27.8149ZM39.9525 19.6124C41.4025 21.1124 42.7925 22.7049 44.1 24.3649L44.2 24.4974C42.825 24.4349 41.42 24.3924 39.9975 24.3924C38.56 24.3924 37.14 24.4224 35.7475 24.4974C37.1375 22.6974 38.5125 21.1049 39.97 19.5874L39.95 19.6074L39.9525 19.6124ZM24.7 10.0824C29.8325 11.0224 34.25 13.5749 37.5225 17.1849L37.54 17.2049C35.3425 19.5149 33.2725 22.0024 31.375 24.6249L31.23 24.8349C27.5425 25.2174 24.235 25.8074 21.015 26.6199L21.505 26.5149C21.155 24.9849 20.895 23.5024 20.7125 22.0799C19.995 16.2449 20.88 11.7074 22.9425 10.4999C23.4575 10.2574 24.06 10.1074 24.695 10.0874H24.7025L24.7 10.0824ZM55.225 10.0199V10.0399C55.2575 10.0399 55.295 10.0374 55.335 10.0374C55.9325 10.0374 56.495 10.1849 56.99 10.4449L56.97 10.4349C59.05 11.6274 59.9525 16.1674 59.25 22.0074C59.0825 23.4449 58.8075 24.9599 58.47 26.5049C55.7575 25.8099 52.455 25.2224 49.085 24.8649L48.765 24.8374C46.7 22.0024 44.615 19.5099 42.3775 17.1624L42.4075 17.1924C45.685 13.5424 50.1 10.9724 55.0925 10.0449L55.2325 10.0224L55.225 10.0199ZM55.24 6.61486C49.135 7.54236 43.85 10.5074 39.99 14.7849L39.97 14.8074C36.0825 10.5324 30.7975 7.58736 24.8425 6.69486L24.7025 6.67736C24.67 6.67736 24.63 6.67736 24.59 6.67736C23.3625 6.67736 22.21 6.99986 21.2125 7.56486L21.2475 7.54736C16.9525 10.0249 15.99 17.7449 18.2075 27.4324C8.69751 30.3699 2.51251 35.0649 2.51251 40.0124C2.51251 44.9799 8.73001 49.6874 18.2675 52.6024C16.0675 62.3274 17.05 70.0599 21.355 72.5349C22.3 73.0774 23.435 73.3949 24.6425 73.3949C24.6975 73.3949 24.7525 73.3949 24.805 73.3924H24.7975C30.9025 72.4649 36.1875 69.4974 40.0475 65.2174L40.0675 65.1949C43.955 69.4724 49.24 72.4174 55.195 73.3099L55.335 73.3274C55.3725 73.3274 55.42 73.3274 55.465 73.3274C56.685 73.3274 57.8325 73.0074 58.825 72.4499L58.79 72.4674C63.0825 69.9924 64.0475 62.2724 61.83 52.5824C71.305 49.6699 77.49 44.9649 77.49 40.0099C77.49 35.0424 71.2725 30.3349 61.735 27.4124C63.935 17.6974 62.9525 9.95736 58.6475 7.47986C57.6925 6.93236 56.5475 6.60986 55.3275 6.60986C55.295 6.60986 55.2625 6.60986 55.23 6.60986H55.235L55.24 6.61486ZM46.9675 40.0124C46.9675 43.8699 43.84 46.9974 39.9825 46.9974C36.125 46.9974 32.9975 43.8699 32.9975 40.0124C32.9975 36.1549 36.125 33.0274 39.9825 33.0274C41.9125 33.0274 43.6575 33.8099 44.9225 35.0724C46.1875 36.3374 46.9675 38.0824 46.9675 40.0124Z" fill="white"/>
</svg>
