<svg width="80" height="80" viewBox="0 0 80 80" fill="none" xmlns="http://www.w3.org/2000/svg">
<g clip-path="url(#clip0_157_62)">
<path d="M39.7867 0.0535647C36.4418 0.0631254 33.111 0.486338 29.87 1.31356C14.27 5.19023 1.89 19.3236 0.303334 35.3469C-1.66333 50.5102 5.99667 66.3002 19.1167 74.1302C31.9867 82.1902 49.4267 81.8636 62.03 73.3869C73.3533 66.0336 80.4033 52.6269 79.9833 39.1036C79.79 25.7169 72.2833 12.7136 60.7867 5.8369C54.5133 1.9669 47.1433 0.0235647 39.7867 0.0535647ZM39.5767 5.7069C56.06 5.68356 72.2067 18.4202 73.85 35.4569C77 54.3236 61.34 73.5002 42.2233 74.0569C24.0433 75.8702 6.47333 60.4569 5.95667 42.2002C4.6 27.4202 14.3433 12.7502 28.2833 7.8669C31.8762 6.43566 35.7093 5.70366 39.5767 5.71023V5.7069ZM56.5467 16.4569C47.59 23.4069 39.0133 30.8169 30.25 37.9802C34.26 38.0369 38.29 38.0336 42.32 38.0136C47.02 30.7969 51.85 23.6769 56.5467 16.4569ZM37.6633 41.9702C32.9633 49.1902 28.13 56.3336 23.43 63.5502C32.4067 56.6169 40.9467 49.1502 49.77 42.0302C45.7346 41.9815 41.699 41.9615 37.6633 41.9702Z" fill="white"/>
</g>
<defs>
<clipPath id="clip0_157_62">
<rect width="80" height="80" fill="white"/>
</clipPath>
</defs>
</svg>
