<svg width="80" height="80" viewBox="0 0 80 80" fill="none" xmlns="http://www.w3.org/2000/svg">
<path fill-rule="evenodd" clip-rule="evenodd" d="M40 20.1201C31.11 20.1201 25.5567 24.5368 23.3333 33.3735C26.6667 28.9568 30.5567 27.3001 35 28.4035C37.5367 29.0335 39.35 30.8635 41.3533 32.8868C44.6233 36.1835 48.4067 40.0001 56.6667 40.0001C65.5567 40.0001 71.11 35.5835 73.3333 26.7468C70 31.1635 66.1133 32.8201 61.6667 31.7168C59.13 31.0868 57.3167 29.2568 55.31 27.2335C52.0433 23.9335 48.2633 20.1201 40 20.1201ZM23.3333 40.0001C14.4433 40.0001 8.88999 44.4168 6.66666 53.2534C9.99999 48.8334 13.89 47.1801 18.3333 48.2834C20.87 48.9134 22.6833 50.7434 24.69 52.7668C27.9567 56.0634 31.74 59.8801 40.0033 59.8801C48.8933 59.8801 54.4467 55.4634 56.67 46.6268C53.3367 51.0434 49.4467 52.7001 45.0033 51.5968C42.4667 50.9668 40.6533 49.1368 38.65 47.1134C35.3767 43.8168 31.5933 40.0001 23.3333 40.0001Z" fill="white"/>
</svg>
