<svg width="80" height="80" viewBox="0 0 80 80" fill="none" xmlns="http://www.w3.org/2000/svg">
<g clip-path="url(#clip0_157_2)">
<path d="M0 40V80H80V0H0V40ZM64.47 36.8133C66.5033 37.32 68.05 38.2233 69.4733 39.6967C70.21 40.4833 71.3033 41.9167 71.39 42.2633C71.4167 42.3633 67.9367 44.6967 65.83 46.0067C65.7533 46.0567 65.4467 45.7267 65.1067 45.22C64.0733 43.72 62.9967 43.0733 61.3467 42.96C58.92 42.7933 57.36 44.0633 57.3733 46.1833C57.3512 46.7047 57.4686 47.2225 57.7133 47.6833C58.2467 48.7867 59.24 49.45 62.3467 50.7933C68.0767 53.26 70.5267 54.8833 72.05 57.1933C73.75 59.77 74.1333 63.8867 72.9767 66.9467C71.71 70.2733 68.56 72.5333 64.1267 73.28C62.7567 73.5233 59.5067 73.4867 58.0333 73.22C54.82 72.6467 51.7733 71.06 49.8933 68.9767C49.1567 68.1667 47.72 66.0433 47.81 65.8933C47.8467 65.84 48.1767 65.6367 48.5433 65.4233C48.9033 65.22 50.2467 64.4433 51.5167 63.7067L53.8167 62.3733L54.3 63.0867C54.9733 64.1133 56.4433 65.5233 57.3333 65.9933C59.8867 67.34 63.39 67.15 65.1167 65.6C65.4639 65.3075 65.7387 64.9387 65.9197 64.5223C66.1007 64.106 66.183 63.6534 66.16 63.2C66.16 62.2733 66.0433 61.8667 65.56 61.1667C64.94 60.28 63.67 59.5333 60.0633 57.9667C55.9367 56.19 54.16 55.0867 52.5333 53.3333C51.5181 52.1762 50.7683 50.811 50.3367 49.3333C50.0333 48.2033 49.9567 45.37 50.1967 44.23C51.0467 40.24 54.0567 37.4633 58.4 36.6367C59.81 36.37 63.0867 36.47 64.47 36.8133ZM45.69 40.1533L45.7167 43.43H35.3V73.0167H27.9333V43.43H17.5267V40.2167C17.5267 38.4367 17.5633 36.95 17.6133 36.9167C17.6533 36.8633 23.99 36.8367 31.67 36.85L45.6533 36.89L45.69 40.1533Z" fill="white"/>
</g>
<defs>
<clipPath id="clip0_157_2">
<rect width="80" height="80" fill="white"/>
</clipPath>
</defs>
</svg>
